<?xml version="1.0" encoding="UTF-8"?>
<svg width="95px" height="35px" viewBox="0 0 95 35" version="1.1" xmlns="http://www.w3.org/2000/svg" xmlns:xlink="http://www.w3.org/1999/xlink">
    <!-- Generator: Sketch 45.2 (43514) - http://www.bohemiancoding.com/sketch -->
    <title>Logo</title>
    <desc>Created with Sketch.</desc>
    <defs></defs>
    <g id="Symbols" stroke="none" stroke-width="1" fill="none" fill-rule="evenodd">
        <g id="Logo">
            <g id="Group-16" fill="#0062FF">
                <rect id="Rectangle-7" x="0" y="0" width="95" height="35"></rect>
            </g>
            <g id="Group-2" transform="translate(9.080078, 11.664199)" fill="#FFFFFF">
                <path d="M17.1384062,6.21209514 C17.1384062,8.69143634 18.8718709,9.7970885 20.4908616,9.7970885 C22.0934988,9.7970885 23.8269636,8.69143634 23.8269636,6.21209514 C23.8269636,3.73275393 22.0934988,2.61034947 20.4908616,2.61034947 C18.8718709,2.61034947 17.1384062,3.73275393 17.1384062,6.21209514 Z M14.4564419,6.22884744 C14.4564419,2.45957872 17.2201734,0.030494431 20.4908616,0.030494431 C23.7451964,0.030494431 26.5089279,2.45957872 26.5089279,6.22884744 C26.5089279,9.98136386 23.7451964,12.4104482 20.4908616,12.4104482 C17.2201734,12.4104482 14.4564419,9.98136386 14.4564419,6.22884744 Z M37.9563366,3.19668016 C37.711035,1.80623881 36.6153545,0.030494431 33.7207954,0.030494431 C31.4967274,0.030494431 29.5670214,1.60521114 29.5670214,3.85002007 C29.5670214,5.60901214 30.7608226,6.94919658 32.7232355,7.3344996 L34.3095193,7.6360411 C35.078131,7.78681185 35.5523808,8.22237179 35.5523808,8.82545479 C35.5523808,9.56255623 34.93095,10.0651254 33.9170367,10.0651254 C32.3307529,10.0651254 31.6112015,9.11024398 31.5130809,8.02134413 L29.1418319,8.60767482 C29.3053663,10.2829054 30.6790554,12.4104482 33.8843298,12.4104482 C36.6480613,12.4104482 38.1689314,10.5174376 38.1689314,8.65793173 C38.1689314,6.96594888 37.0241905,5.50849831 34.8164759,5.08969067 L33.262899,4.78814918 C32.4615804,4.63737843 32.1181582,4.21857079 32.1181582,3.64899241 C32.1181582,2.99565249 32.7395889,2.37581719 33.704442,2.37581719 C35.1108379,2.37581719 35.5523808,3.3139463 35.634148,3.86677238 L37.9563366,3.19668016 Z M46.0512899,12.4272005 C48.6024267,12.4272005 50.6466069,10.8524837 50.6466069,7.87057338 L50.6466069,0.281779013 L48.0627632,0.281779013 L48.0627632,7.65279341 C48.0627632,9.09349167 47.277798,9.81384081 46.0512899,9.81384081 C44.8247819,9.81384081 44.0398167,9.09349167 44.0398167,7.65279341 L44.0398167,0.281779013 L41.455973,0.281779013 L41.455973,7.87057338 C41.455973,10.8524837 43.5001531,12.4272005 46.0512899,12.4272005 Z M53.802821,10.5844469 C53.802821,11.5058237 54.5550793,12.3099343 55.470872,12.3099343 C56.3866647,12.3099343 57.1552764,11.5058237 57.1552764,10.5844469 C57.1552764,9.64631775 56.3866647,8.8757117 55.470872,8.8757117 C54.5550793,8.8757117 53.802821,9.64631775 53.802821,10.5844469 Z M68.8152798,12.1591636 L67.9812543,9.74683159 L63.5004115,9.74683159 L62.666386,12.1591636 L59.9517148,12.1591636 L64.3180836,0.281779013 L67.3107633,0.281779013 L71.6280717,12.1591636 L68.8152798,12.1591636 Z M65.7735398,3.23018477 L64.3507904,7.3344996 L67.1635823,7.3344996 L65.7735398,3.23018477 Z M77.3027157,12.1591636 L74.6861652,12.1591636 L74.6861652,0.281779013 L77.3027157,0.281779013 L77.3027157,12.1591636 Z M11.5470808,8.04369582 C11.3088065,9.14936727 10.8862458,10.0158596 10.2793987,10.6431728 C9.36912815,11.5841425 7.63169135,12.4097938 5.95603738,12.4097938 C2.68768261,12.4097938 -5.68434189e-14,9.97485453 -5.68434189e-14,6.21329322 C-5.68434189e-14,2.46852461 2.80381704,0 6.12194372,0 C9.48984229,0 11.0493618,2.01512213 11.5636715,3.67759788 L9.04189519,4.56761015 C8.85939822,3.82873204 8.07963845,2.48531729 6.12194372,2.48531729 C4.52924291,2.48531729 2.65450134,3.56004909 2.65450134,6.21329322 C2.65450134,8.69861051 4.28038341,9.99164721 6.18830625,9.99164721 C8.12941035,9.99164721 8.94235139,8.7154032 9.09166709,8.04369582 L5.55786218,8.04369582 L5.55786218,5.79347611 L11.5470808,5.79347611 L11.5470808,8.04369582 Z" id="GOSU.AI-Copy-2"></path>
            </g>
        </g>
    </g>
</svg>